<svg width="470" height="100" viewBox="0 0 470 100" fill="none" xmlns="http://www.w3.org/2000/svg">
<rect width="470" height="100" fill="#1E1E1E"/>
<g clip-path="url(#clip0_0_1)">
<rect width="470" height="100" rx="2" fill="white"/>
<path d="M8.61765 56.2983L8.5 56.4379V56.6205V95V95.5H9H96H96.5V95V56.6205V56.4379L96.3823 56.2983L52.8823 4.6778L52.5 4.22408L52.1177 4.6778L8.61765 56.2983Z" fill="#292D41" stroke="#0073E6"/>
<path d="M80 14H86.2143V43.5L80 36V14Z" fill="#096756"/>
<path d="M49.3928 71H61.8214V95H49.3928V71Z" fill="#7B7474"/>
<rect x="36.9642" y="71" width="12.4286" height="24" fill="#1E1E1E"/>
<rect x="43.1786" y="80" width="6.21429" height="3" fill="#0073E6"/>
<rect x="61.8214" y="44" width="18.6429" height="18" fill="#F3B942"/>
<rect width="15.3036" height="15.2367" transform="matrix(0.761363 0.648326 -0.67443 0.738339 41.0262 23)" fill="#C1E0DE"/>
<path d="M21.4286 56L29.5012 74H13.356L21.4286 56Z" fill="#0073E6"/>
<path d="M80.4643 65L91.2278 85.25H69.7009L80.4643 65Z" fill="#C748AB"/>
<path d="M140.6 92.2V95H113.2V92.2L118.7 91.5C119.767 91.3667 120.4 91.1 120.6 90.7C120.8 90.2333 120.9 88.8667 120.9 86.6V65.9L105 35.4C104.2 33.8667 103.6 32.8 103.2 32.2C102.8 31.5333 102.4 31.1 102 30.9C101.667 30.7 101.167 30.5667 100.5 30.5L95 29.8V27H123.5V29.8L118 30.5C117 30.6333 116.5 30.9333 116.5 31.4C116.5 31.8 117.033 33.1333 118.1 35.4L131 61.2L144.4 35.4C145.533 33.2 146.067 31.8667 146 31.4C146 30.9333 145.5 30.6333 144.5 30.5L139 29.8V27H158.5V29.8L153 30.5C152.333 30.5667 151.8 30.7 151.4 30.9C151.067 31.1 150.7 31.5333 150.3 32.2C149.967 32.8 149.4 33.8667 148.6 35.4L132.9 65.7V86.6C132.9 88.8667 133 90.2333 133.2 90.7C133.4 91.1 134.033 91.3667 135.1 91.5L140.6 92.2ZM214.57 92.2V95H195.97V86.2C194.104 89.6 191.704 92.1 188.77 93.7C185.837 95.2333 182.87 96 179.87 96C175.137 96 171.37 94.4333 168.57 91.3C165.77 88.1 164.37 83.6667 164.37 78V52.7C164.37 50.4333 164.27 49.1 164.07 48.7C163.87 48.2333 163.237 47.9333 162.17 47.8L156.67 47.1V44.3H175.87V77.9C175.87 82.5 176.504 85.8667 177.77 88C179.104 90.0667 181.004 91.1 183.47 91.1C184.537 91.1 185.77 90.8333 187.17 90.3C188.637 89.7 190.104 88.6667 191.57 87.2C193.037 85.6667 194.304 83.5 195.37 80.7V52.7C195.37 50.4333 195.27 49.0667 195.07 48.6C194.87 48.1333 194.237 47.8667 193.17 47.8L185.67 47.1V44.3H206.87V86.6C206.87 88.8667 206.97 90.2333 207.17 90.7C207.37 91.1 208.004 91.3667 209.07 91.5L214.57 92.2ZM218.515 47.1V44.3H237.115V52.5C241.182 46.3667 246.015 43.3 251.615 43.3C253.682 43.3 255.682 43.9667 257.615 45.3C259.548 46.5667 261.148 48.9667 262.415 52.5L253.515 57.3C252.582 54.5667 251.482 52.7333 250.215 51.8C249.015 50.8 247.715 50.3 246.315 50.3C244.848 50.3 243.415 50.7667 242.015 51.7C240.615 52.6333 239.182 54.3667 237.715 56.9V86.6C237.715 88.8667 237.815 90.2333 238.015 90.7C238.215 91.1 238.848 91.3667 239.915 91.5L247.415 92.2V95H218.515V92.2L224.015 91.5C225.082 91.3667 225.715 91.1 225.915 90.7C226.115 90.2333 226.215 88.8667 226.215 86.6V52.7C226.215 50.4333 226.115 49.1 225.915 48.7C225.715 48.2333 225.082 47.9333 224.015 47.8L218.515 47.1ZM308.341 83.1C307.141 87.7667 304.908 91.1 301.641 93.1C298.375 95.0333 294.575 96 290.241 96C282.241 96 276.241 93.7 272.241 89.1C268.241 84.4333 266.241 78.2667 266.241 70.6V68.6C266.241 60.9333 268.108 54.8 271.841 50.2C275.641 45.6 281.108 43.3 288.241 43.3C292.241 43.3 295.775 44.1 298.841 45.7C301.975 47.2333 304.408 49.4667 306.141 52.4C307.941 55.3333 308.841 58.9 308.841 63.1C308.841 64.1 308.775 65.1667 308.641 66.3C308.575 67.4333 308.408 68.5667 308.141 69.7H278.541V72.6C278.541 79.6667 279.541 84.7667 281.541 87.9C283.541 90.9667 286.775 92.5 291.241 92.5C294.108 92.5 296.541 91.6667 298.541 90C300.541 88.2667 301.675 85.3667 301.941 81.3L308.341 83.1ZM288.241 46.8C284.975 46.8 282.541 48.3 280.941 51.3C279.341 54.3 278.541 59.2667 278.541 66.2H296.641C296.908 64.8667 297.075 63.6333 297.141 62.5C297.275 61.3 297.341 60.2 297.341 59.2C297.341 54.9333 296.508 51.8 294.841 49.8C293.175 47.8 290.975 46.8 288.241 46.8ZM375.071 92.2V95H348.171V92.2L353.671 91.5C354.738 91.3667 355.371 91.1 355.571 90.7C355.771 90.2333 355.871 88.8667 355.871 86.6V61.4C355.871 56.8 355.171 53.4667 353.771 51.4C352.438 49.2667 350.438 48.2 347.771 48.2C346.638 48.2 345.304 48.5 343.771 49.1C342.304 49.6333 340.804 50.6333 339.271 52.1C337.804 53.5667 336.504 55.7333 335.371 58.6V86.6C335.371 88.8667 335.471 90.2333 335.671 90.7C335.871 91.1 336.504 91.3667 337.571 91.5L343.071 92.2V95H316.171V92.2L321.671 91.5C322.738 91.3667 323.371 91.1 323.571 90.7C323.771 90.2333 323.871 88.8667 323.871 86.6V52.7C323.871 50.4333 323.771 49.1 323.571 48.7C323.371 48.2333 322.738 47.9333 321.671 47.8L316.171 47.1V44.3H334.771V53.1C336.704 49.7 339.171 47.2333 342.171 45.7C345.238 44.1 348.304 43.3 351.371 43.3C356.304 43.3 360.204 44.8667 363.071 48C365.938 51.1333 367.371 55.5667 367.371 61.3V86.6C367.371 88.8667 367.471 90.2333 367.671 90.7C367.871 91.1 368.504 91.3667 369.571 91.5L375.071 92.2ZM414.076 84.6C413.209 88.6667 411.542 91.6 409.076 93.4C406.676 95.1333 403.742 96 400.276 96C396.742 96 393.842 95.2333 391.576 93.7C389.309 92.1 387.642 90 386.576 87.4C385.509 84.8 384.976 82.0333 384.976 79.1V52.7C384.976 50.4333 384.876 49.1 384.676 48.7C384.476 48.2333 383.842 47.9333 382.776 47.8L377.276 47.1V44.3H384.976V32.7L396.476 30.4V44.3H412.476V47.8H396.476V81.1C396.476 85.3667 397.009 88.3333 398.076 90C399.142 91.6 400.509 92.4 402.176 92.4C403.909 92.4 405.242 91.7333 406.176 90.4C407.176 89.0667 407.809 86.6333 408.076 83.1L414.076 84.6ZM466.629 68.6V70.6C466.629 78.2667 464.629 84.4333 460.629 89.1C456.696 93.7 451.062 96 443.729 96C436.396 96 430.729 93.7 426.729 89.1C422.796 84.4333 420.829 78.2667 420.829 70.6V68.6C420.829 60.9333 422.796 54.8 426.729 50.2C430.729 45.6 436.396 43.3 443.729 43.3C451.062 43.3 456.696 45.6 460.629 50.2C464.629 54.8 466.629 60.9333 466.629 68.6ZM454.329 66.6C454.329 59.4667 453.429 54.4 451.629 51.4C449.829 48.3333 447.196 46.8 443.729 46.8C440.329 46.8 437.696 48.3333 435.829 51.4C434.029 54.4 433.129 59.4667 433.129 66.6V72.6C433.129 79.6667 434.029 84.7667 435.829 87.9C437.696 90.9667 440.329 92.5 443.729 92.5C447.196 92.5 449.829 90.9667 451.629 87.9C453.429 84.7667 454.329 79.6667 454.329 72.6V66.6Z" fill="#1E1E1E"/>
</g>
<defs>
<clipPath id="clip0_0_1">
<rect width="470" height="100" rx="2" fill="white"/>
</clipPath>
</defs>
</svg>
